<?xml version="1.0" encoding="UTF-8"?>
<svg width="574px" height="69px" viewBox="0 0 574 69" version="1.1" xmlns="http://www.w3.org/2000/svg" xmlns:xlink="http://www.w3.org/1999/xlink">
    <!-- Generator: Sketch 49.3 (51167) - http://www.bohemiancoding.com/sketch -->
    <title>Group</title>
    <desc>Created with Sketch.</desc>
    <defs></defs>
    <g id="Page-1" stroke="none" stroke-width="1" fill="none" fill-rule="evenodd">
        <g id="Group" fill-rule="nonzero">
            <path d="M1.991,55.333 C2.706,54.515 3.728,54.107 5.159,54.107 L48.998,54.107 C55.538,54.107 59.319,53.494 60.239,52.37 C62.998,50.633 64.327,48.385 64.327,45.626 C64.327,42.356 62.283,39.801 58.298,38.064 C57.48,37.553 54.415,37.349 48.999,37.349 L19.466,37.349 C10.167,37.349 4.138,33.057 1.276,24.371 C0.867,22.634 0.663,20.897 0.663,19.262 L0.663,19.058 C0.663,11.189 4.24,5.569 11.495,2.197 C13.539,1.379 15.991,0.971 18.75,0.971 L74.239,0.971 C75.465,0.971 76.487,1.38 77.202,2.095 C78.02,2.81 78.428,3.934 78.428,5.263 L78.428,10.066 C78.428,11.292 78.121,12.314 77.406,13.132 C76.691,13.95 75.669,14.358 74.238,14.358 L26.311,14.358 C20.588,14.358 17.318,14.971 16.705,16.197 C15.785,16.912 15.377,17.934 15.377,19.263 C15.377,21.716 17.114,23.146 20.691,23.759 C21.917,23.963 24.063,24.066 27.027,24.066 L56.662,24.066 C65.859,24.066 72.501,28.256 76.589,36.737 C77.713,39.394 78.326,42.357 78.326,45.627 L78.326,45.934 C78.326,54.211 74.749,60.547 67.698,64.941 C64.53,66.678 61.056,67.598 57.173,67.598 L5.159,67.598 C3.933,67.598 2.911,67.189 2.093,66.474 C1.275,65.759 0.867,64.737 0.867,63.306 L0.867,58.401 C0.867,57.07 1.174,56.049 1.991,55.333 Z" id="XMLID_756_" fill="#054D99"></path>
            <path d="M121.859,0.969 C124.925,0.969 127.173,2.706 128.501,6.283 C137.596,24.677 144.545,38.677 149.245,48.18 C153.945,57.683 156.398,62.895 156.807,63.713 C156.909,64.122 157.011,64.428 157.011,64.633 L157.011,65.144 C156.807,66.779 155.683,67.494 153.741,67.494 L146.69,67.494 C143.624,67.494 141.274,65.144 139.537,60.545 C134.223,49.815 130.033,41.333 126.968,35.202 C123.902,29.071 121.961,25.29 121.041,23.552 C119.917,22.224 119.099,21.508 118.384,21.508 L117.566,21.508 C115.829,21.508 113.683,24.574 111.23,30.603 L94.471,64.325 C93.04,66.267 91.303,67.288 89.259,67.288 L82.31,67.288 C80.777,67.288 79.755,66.675 79.142,65.551 L79.04,64.836 L79.04,64.325 C79.04,63.405 80.266,60.544 82.719,55.843 C89.974,40.923 95.799,29.172 100.091,20.486 C104.383,11.8 107.244,6.18 108.675,3.42 C109.901,1.478 111.638,0.559 114.091,0.559 L121.857,0.559 L121.857,0.969 L121.859,0.969 Z" id="XMLID_755_" fill="#054D99"></path>
            <path d="M165.8,67.494 C164.574,67.494 163.552,67.085 162.734,66.37 C161.916,65.655 161.508,64.531 161.508,63.202 L161.508,33.26 C161.508,23.348 165.493,14.968 173.362,8.122 C179.391,3.319 186.238,0.867 193.8,0.867 L234.573,0.867 C235.799,0.867 236.821,1.276 237.639,1.991 C238.457,2.706 238.865,3.83 238.865,5.159 L238.865,9.962 C238.865,11.188 238.456,12.21 237.741,13.028 C237.026,13.846 235.902,14.254 234.573,14.254 L202.179,14.254 C194.208,14.254 189.508,14.867 187.873,15.991 C182.968,18.239 179.289,21.714 176.939,26.312 C175.611,28.765 174.895,33.363 174.895,40.108 L174.895,63.1 C174.895,64.326 174.486,65.348 173.771,66.166 C173.056,66.984 171.932,67.392 170.603,67.392 L165.8,67.392 L165.8,67.494 Z M186.442,28.151 C186.442,26.925 186.851,25.903 187.566,25.188 C188.281,24.37 189.405,23.962 190.734,23.962 L234.675,23.962 C235.901,23.962 236.923,24.269 237.741,24.984 C238.559,25.699 238.967,26.721 238.967,28.152 L238.967,33.057 C238.967,34.283 238.558,35.305 237.843,36.123 C237.128,36.941 236.004,37.349 234.675,37.349 L190.734,37.349 C189.508,37.349 188.486,36.94 187.668,36.225 C186.85,35.51 186.442,34.386 186.442,33.057 L186.442,28.151 Z" id="XMLID_752_" fill="#054D99"></path>
            <path d="M243.464,5.261 C243.464,4.035 243.873,3.013 244.588,2.195 C245.303,1.377 246.427,0.969 247.756,0.969 L316.631,0.969 C317.857,0.969 318.879,1.378 319.697,2.093 C320.515,2.808 320.923,3.932 320.923,5.261 L320.923,10.064 C320.923,11.29 320.514,12.312 319.799,13.13 C319.084,13.948 317.96,14.356 316.631,14.356 L247.756,14.356 C246.53,14.356 245.508,13.947 244.69,13.232 C243.872,12.517 243.464,11.393 243.464,10.064 L243.464,5.261 Z M243.464,28.151 C243.464,26.925 243.873,25.903 244.588,25.085 C245.303,24.37 246.427,23.961 247.756,23.961 L316.631,23.961 C317.857,23.961 318.879,24.268 319.697,24.983 C320.515,25.698 320.923,26.72 320.923,28.151 L320.923,33.056 C320.923,34.282 320.514,35.304 319.799,36.122 C319.084,36.94 317.96,37.348 316.631,37.348 L247.756,37.348 C246.53,37.348 245.508,36.939 244.69,36.224 C243.872,35.509 243.464,34.385 243.464,33.056 L243.464,28.151 Z M243.464,58.399 C243.464,57.173 243.873,56.151 244.588,55.333 C245.303,54.515 246.427,54.107 247.756,54.107 L316.631,54.107 C317.857,54.107 318.879,54.516 319.697,55.231 C320.515,55.946 320.923,56.968 320.923,58.399 L320.923,63.304 C320.923,64.53 320.514,65.552 319.799,66.37 C319.084,67.188 317.96,67.596 316.631,67.596 L247.756,67.596 C246.53,67.596 245.508,67.187 244.69,66.472 C243.872,65.757 243.464,64.735 243.464,63.304 L243.464,58.399 Z" id="XMLID_748_" fill="#054D99"></path>
            <path d="M328.076,3.217 C328.791,2.399 329.915,1.991 331.244,1.991 L386.324,1.991 C394.601,1.991 400.324,5.976 403.492,13.947 C404.105,15.889 404.309,17.83 404.309,19.874 L404.309,20.589 C404.309,23.042 403.9,25.392 402.981,27.538 C402.163,29.684 400.937,31.626 399.302,33.261 C397.667,34.896 395.725,36.122 393.375,37.042 C391.025,37.962 388.368,38.37 385.506,38.37 L350.864,38.37 C347.901,38.37 346.47,36.735 346.47,33.465 L346.47,29.991 C346.47,26.721 347.901,25.086 350.864,25.086 L377.74,25.086 C383.667,25.086 387.039,24.575 387.857,23.451 C388.981,22.736 389.492,21.612 389.492,20.181 C389.492,18.137 388.368,16.707 386.018,15.991 C385.303,15.582 382.748,15.378 378.558,15.378 L348.82,15.378 C344.324,15.378 341.769,16.196 341.258,17.933 C340.747,19.057 340.543,20.079 340.543,21.203 C340.441,32.137 340.441,41.13 340.441,48.385 C340.441,55.538 340.441,61.056 340.441,64.735 C340.441,65.757 340.032,66.677 339.317,67.494 C338.602,68.311 337.478,68.72 336.149,68.72 L331.244,68.72 C330.018,68.72 328.996,68.311 328.178,67.596 C327.36,66.881 326.952,65.757 326.952,64.428 L326.952,6.282 C326.952,5.056 327.361,4.034 328.076,3.217 Z" id="XMLID_746_" fill="#EF001F"></path>
            <path d="M410.032,3.217 C410.747,2.399 411.871,1.991 413.2,1.991 L468.28,1.991 C476.557,1.991 482.28,5.976 485.448,13.947 C486.061,15.889 486.266,17.83 486.266,19.874 L486.266,20.589 C486.266,28.662 482.281,34.282 474.412,37.552 C473.492,37.859 471.959,38.165 469.609,38.37 C467.259,38.574 464.193,38.677 460.31,38.677 C457.755,39.086 456.427,39.903 456.427,41.13 L456.427,41.334 C456.427,42.969 458.266,45.115 461.945,47.67 L482.587,64.94 C483.098,65.553 483.302,66.166 483.302,66.984 C483.302,68.108 482.178,68.619 479.828,68.619 L468.178,68.619 C465.317,68.619 462.353,67.086 459.185,64.123 C441.2,49.203 432.003,41.539 431.492,41.028 C429.653,39.393 428.733,37.043 428.733,33.977 L428.733,29.992 C428.733,26.722 430.164,25.087 433.127,25.087 L460.003,25.087 C465.93,25.087 469.302,24.576 470.12,23.452 C471.244,22.737 471.755,21.613 471.755,20.182 C471.755,18.138 470.631,16.708 468.281,15.992 C467.566,15.583 465.011,15.379 460.821,15.379 L430.88,15.379 C426.384,15.379 423.829,16.197 423.318,17.934 C422.807,19.058 422.603,20.08 422.603,21.204 C422.501,32.036 422.501,41.029 422.501,48.182 C422.501,55.335 422.501,60.853 422.501,64.634 C422.501,65.656 422.092,66.576 421.377,67.393 C420.662,68.211 419.538,68.619 418.209,68.619 L413.304,68.619 C412.078,68.619 411.056,68.21 410.238,67.495 C409.42,66.78 409.012,65.656 409.012,64.327 L409.012,6.284 C408.908,5.056 409.316,4.034 410.032,3.217 Z" id="XMLID_745_" fill="#EF001F"></path>
            <path d="M540.833,1.991 C551.767,1.991 560.862,6.794 567.913,16.4 C571.49,22.02 573.227,27.947 573.227,34.079 L573.227,36.532 C573.227,46.853 568.731,55.437 559.84,62.488 C554.015,66.576 547.679,68.619 540.935,68.619 L522.337,68.619 C512.425,68.619 504.045,64.634 497.199,56.765 C492.396,50.736 489.944,43.889 489.944,36.327 L489.944,34.385 C489.944,24.473 493.929,16.093 501.798,9.247 C507.827,4.444 514.674,1.992 522.236,1.992 L540.833,1.992 L540.833,1.991 Z M503.534,35.406 C503.534,41.026 506.191,46.238 511.505,50.837 C514.979,53.8 520.191,55.231 527.242,55.231 L532.249,55.231 C540.322,55.231 545.227,54.618 546.76,53.392 C551.154,51.553 554.629,48.385 557.081,43.786 C558.512,40.925 559.125,38.063 559.125,35.202 C559.125,29.377 556.264,24.063 550.643,19.465 C547.271,16.808 542.161,15.48 535.11,15.48 L530.307,15.48 C522.336,15.48 517.636,16.093 516.001,17.217 C513.957,17.83 511.402,19.567 508.439,22.531 C505.272,26.823 503.534,31.114 503.534,35.406 Z" id="XMLID_742_" fill="#EF001F"></path>
        </g>
    </g>
</svg>